<?xml version="1.0" encoding="iso-8859-1"?>
<!-- Generator: Adobe Illustrator 19.0.0, SVG Export Plug-In . SVG Version: 6.00 Build 0)  -->
<svg version="1.1" id="Capa_1" xmlns="http://www.w3.org/2000/svg" xmlns:xlink="http://www.w3.org/1999/xlink" x="0px" y="0px"
	 viewBox="0 0 512 512" style="enable-background:new 0 0 512 512;" xml:space="preserve">
<path style="fill:#93482B;" d="M313.281,78.975c-4.772-94.154-138.602-108.794-163.68-17.936
	c-3.667,13.335-3.088,20.659-3.048,49.429h166.85C313.409,81.08,313.405,81.453,313.281,78.975z"/>
<path style="fill:#873921;" d="M203.705,61.039c8.389-30.395,28.954-48.966,52.782-56.721
	c-52.126-16.6-105.253,16.183-109.624,72.267c-0.292,3.691-0.325,22.553-0.309,33.883h54.104
	C200.612,78.209,200.405,73.038,203.705,61.039z"/>
<path style="fill:#EFEFEF;" d="M345.538,314.222l-10.323-66.527c-1.677-8.484-2.634-22.593-18.885-29.424
	c-1.517-0.636-4.971-1.589-4.902-1.568c-71.27-25.176-5.679-2.007-37.202-13.105l-15.788-9.775v-18.79
	c-16.94,8.528-37.732,9.183-55.041,1.186l0.011,17.604l-16.234,9.946l-8.365,2.876h-0.018l0.003,0.006
	c-0.106,0.037-34.322,12.152-32.116,11.16c-8.994,3.359-16.598,10.75-17.661,21.1c-0.671,6.527-12.615,75.313-12.615,75.313h229.136
	V314.222z"/>
<path style="fill:#DDDDDD;" d="M169.713,209.862c-23.443,8.272-23.163,8.006-23.035,7.948c-8.994,3.359-16.597,10.75-17.661,21.1
	c-0.671,6.527-12.615,75.313-12.615,75.313h31.066c0,0,11.945-81.163,12.615-87.689
	C160.805,219.496,164.389,213.975,169.713,209.862z"/>
<path style="fill:#EAB883;" d="M229.978,219.7l32.057-23.651l0,0l-3.596-2.226v-18.79c-16.94,8.528-37.732,9.183-55.041,1.186
	l0.011,17.604l-3.634,2.226L229.978,219.7z"/>
<path style="fill:#E0A773;" d="M229.977,219.7v-37.881c-9.121,0.07-18.253-1.754-26.579-5.601l0.011,17.604l-3.634,2.226
	L229.977,219.7z"/>
<g>
	<path style="fill:#DDDDDD;" d="M173.262,280.114c0-4.553-3.69-8.242-8.242-8.242s-8.242,3.69-8.242,8.242v31.014h16.485
		L173.262,280.114L173.262,280.114z"/>
	<path style="fill:#DDDDDD;" d="M303.203,280.114c0-4.553-3.69-8.242-8.242-8.242s-8.242,3.69-8.242,8.242v31.014h16.485
		L303.203,280.114L303.203,280.114z"/>
	<path style="fill:#DDDDDD;" d="M203.409,193.823l26.568,25.878l-23.715,16.504c-3.461,2.408-8.265,0.795-9.57-3.214l-9.517-29.222
		L203.409,193.823z"/>
	<path style="fill:#DDDDDD;" d="M258.439,193.823L229.977,219.7l23.715,16.504c3.461,2.408,8.265,0.795,9.57-3.214l10.964-29.392
		L258.439,193.823z"/>
</g>
<path style="fill:#EF3C3C;" d="M240.665,256.269c-7.476,0-13.899,0-21.375,0l-14.667,54.903c16.138,0,34.569,0,50.708,0
	L240.665,256.269z"/>
<path style="fill:#F94A46;" d="M229.978,219.7l-19.91,13.856l9.222,22.713c7.476,0,13.899,0,21.375,0l9.223-22.713L229.978,219.7z"
	/>
<path style="fill:#DD2F2F;" d="M240.665,256.269c-7.476,0-13.899,0-21.375,0l-14.667,54.903h21.392l14.658-54.872L240.665,256.269z"
	/>
<path style="fill:#EF3C3C;" d="M226.747,221.949l-16.679,11.607l9.222,22.713c7.476,0,13.899,0,21.375,0l0.008-0.021
	L226.747,221.949z"/>
<g>
	<path style="fill:#EAB883;" d="M171.608,100.763c-14.481-5.161-31.301,4.437-31.301,18.438c0,13.998,16.818,23.6,31.301,18.438
		V100.763z"/>
	<path style="fill:#EAB883;" d="M288.376,100.763c14.482-5.161,31.301,4.437,31.301,18.438c0,13.998-16.818,23.6-31.301,18.438
		V100.763z"/>
</g>
<g>
	<path style="fill:#E0A773;" d="M142.535,110.73c-9.073,16.251,10.451,33.546,29.073,26.91v-16.943
		C160.303,124.726,147.577,119.76,142.535,110.73z"/>
	<path style="fill:#E0A773;" d="M288.376,120.697v16.943c18.635,6.641,38.141-10.668,29.073-26.91
		C312.407,119.76,299.681,124.726,288.376,120.697z"/>
</g>
<path style="fill:#F7CF9C;" d="M287.837,78.947c1.545,0.149,2.733,1.431,2.733,2.983c0,51.005,0.033,43.547-0.086,45.919
	c-3.466,68.388-100.673,79.022-118.888,13.028c-1.004-3.649-1.659-7.057-1.989-11.292c-0.339-4.283-0.198-27.536-0.198-27.461
	c0-11.878,10.542-20.94,22.298-19.244c18.516,2.673,45.542,1.634,69.124-18.523c2.423-2.071,6.101-1.402,7.648,1.385
	C271.402,71.004,277.212,77.922,287.837,78.947z"/>
<path style="fill:#EAB883;" d="M200.744,127.849c-0.118-2.342-0.087,4.896-0.086-44.066c-3.15-0.181-6.149-0.498-8.951-0.903
	c-11.756-1.697-22.298,7.365-22.298,19.244c0-0.075-0.141,23.178,0.198,27.461c2.99,38.353,38.137,63.188,76.007,53.519
	C222.265,177.143,202.282,158.183,200.744,127.849z"/>
<path style="fill:#EFEFEF;" d="M101.488,278.97c-4.272,0-7.735-3.463-7.735-7.735V211.77c0-7.401,3.582-14.405,9.582-18.737
	l13.128-9.479c3.463-2.5,8.299-1.718,10.799,1.744c2.501,3.464,1.72,8.299-1.743,10.8l-13.127,9.478
	c-1.983,1.431-3.167,3.748-3.167,6.194v59.465C109.224,275.507,105.76,278.97,101.488,278.97z"/>
<path style="fill:#666666;" d="M133.38,196.156c-14.769,0-20.938-18.989-8.949-27.645l8.66-6.253
	c6.834-4.933,16.378-3.397,21.314,3.441c4.935,6.836,3.395,16.378-3.441,21.314C144.136,191.322,140.826,196.156,133.38,196.156z"/>
<path style="fill:#535454;" d="M136.465,160.435c-3.096,1.214-3.9,2.372-12.034,8.076c-11.955,8.631-5.85,27.645,8.948,27.645
	c3.096,0,6.223-0.94,8.924-2.89c8.353-6.119,8.857-6.193,10.528-7.867C137.523,191.373,124.881,172.086,136.465,160.435z"/>
<path style="fill:#CCCCCC;" d="M121.258,314.222v-23.218c0-10.918-8.851-19.769-19.769-19.769c-10.919,0-19.77,8.851-19.77,19.769
	v23.218H121.258z"/>
<path style="fill:#BCBBBB;" d="M111.373,273.901c-13.043-7.556-29.654,1.795-29.654,17.103v23.218h19.769v-23.218
	C101.488,283.691,105.47,277.321,111.373,273.901z"/>
<path style="fill:#F7CF9C;" d="M106.441,369.099l13.831,128.802c0.883,8.024,7.663,14.099,15.736,14.099h190.251
	c7.599,0,13.959-5.762,14.708-13.323l8.018-84.067l3.584-45.511C331.884,369.099,113.305,369.099,106.441,369.099z"/>
<path style="fill:#EAB883;" d="M151.213,497.901l-13.831-128.802H106.44l13.831,128.802c0.883,8.024,7.663,14.099,15.736,14.099
	h30.942C158.876,512,152.096,505.925,151.213,497.901z"/>
<path style="fill:#93482B;" d="M289.639,349.696c-4.376-4.264-4.377-11.286,0-15.551c3.657-5.075,13.826-8.633,12.402-23.017H74.682
	c-4.52,0-7.933,4.097-7.118,8.542l7.978,43.504c0.958,5.225,5.512,9.02,10.824,9.02H302.11
	C303.266,358.404,293.349,354.741,289.639,349.696z"/>
<path style="fill:#873921;" d="M129.356,363.174l-7.978-43.504c-0.815-4.445,2.599-8.542,7.118-8.542H74.682
	c-4.52,0-7.933,4.097-7.118,8.542l7.978,43.504c0.958,5.225,5.512,9.019,10.824,9.019h53.815
	C134.868,372.193,130.314,368.399,129.356,363.174z"/>
<g>
	<path style="fill:#F9DEC0;" d="M281.989,433.814H177.888c-4.272,0-7.735-3.463-7.735-7.735c0-4.273,3.463-7.735,7.735-7.735
		h104.101c4.272,0,7.735,3.463,7.735,7.735C289.724,430.351,286.261,433.814,281.989,433.814z"/>
	<path style="fill:#F9DEC0;" d="M281.989,469.365H177.888c-4.272,0-7.735-3.463-7.735-7.735c0-4.273,3.463-7.735,7.735-7.735
		h104.101c4.272,0,7.735,3.463,7.735,7.735C289.724,465.903,286.261,469.365,281.989,469.365z"/>
</g>
<path style="fill:#92B620;" d="M441.275,334.145l-6.814-6.643c-9.871-9.62-4.073-21.354-3.943-26.202
	c1.031-6.011-3.081-11.7-9.141-12.581c-4.623-1.364-17.717,0.437-23.784-11.859l-4.219-8.549c-2.704-5.48-9.381-7.649-14.79-4.806
	c-4.542,1.613-14.051,10.754-26.187,4.373l-8.319-4.373c-5.334-2.803-12.053-0.741-14.79,4.806
	c-2.756,4.026-5.088,17.078-18.675,19.052l-9.328,1.356c-6.049,0.879-10.174,6.558-9.141,12.581
	c0.128,4.776,5.872,16.636-3.942,26.202l-6.814,6.643c-4.377,4.265-4.376,11.286,0,15.551l6.814,6.642
	c9.87,9.621,4.073,21.355,3.943,26.202c-1.033,6.024,3.093,11.702,9.141,12.581c4.615,1.361,17.716-0.437,23.784,11.859l4.219,8.549
	c1.928,3.906,5.82,6.059,9.752,6.059c4.196,0,6.13-2.128,13.357-5.627c12.217-6.424,21.51,2.712,26.187,4.373
	c5.4,2.838,12.08,0.685,14.79-4.805l4.219-8.549c6.102-12.366,19.066-10.467,23.784-11.859c6.048-0.879,10.174-6.557,9.141-12.581
	l-1.579-9.208c-2.333-13.605,9.296-19.688,12.336-23.637C445.651,345.43,445.651,338.41,441.275,334.145z"/>
<path style="fill:#EFEFEF;" d="M346.422,370.732l-15.759-19.578c-2.679-3.328-2.153-8.198,1.175-10.877
	c3.328-2.678,8.198-2.152,10.876,1.175l9.965,12.38l27.763-31.902c2.805-3.223,7.691-3.56,10.914-0.756s3.561,7.69,0.757,10.913
	l-33.83,38.872C355.118,374.595,349.438,374.478,346.422,370.732z"/>
<path style="fill:#83A00B;" d="M317.648,374.019c-21.995-38.097-8.98-86.969,29.395-108.955l-2.964-1.558
	c-5.334-2.803-12.053-0.741-14.79,4.806c-2.756,4.026-5.088,17.078-18.676,19.052l-9.328,1.356
	c-6.049,0.879-10.174,6.558-9.141,12.581c0.128,4.776,5.872,16.636-3.943,26.202l-6.814,6.643c-4.377,4.265-4.376,11.286,0,15.551
	l6.814,6.642c9.87,9.621,4.073,21.355,3.943,26.202c-1.033,6.024,3.093,11.702,9.141,12.581c4.615,1.361,17.716-0.437,23.784,11.859
	l4.219,8.549c1.928,3.906,5.82,6.059,9.752,6.059c4.196,0,6.13-2.128,13.357-5.627c12.217-6.424,21.51,2.712,26.187,4.373
	c5.4,2.838,12.08,0.685,14.79-4.805l1.016-2.058C364.255,416.397,333.773,401.949,317.648,374.019z"/>
<g>
</g>
<g>
</g>
<g>
</g>
<g>
</g>
<g>
</g>
<g>
</g>
<g>
</g>
<g>
</g>
<g>
</g>
<g>
</g>
<g>
</g>
<g>
</g>
<g>
</g>
<g>
</g>
<g>
</g>
</svg>
